<svg width="38" height="36" viewBox="0 0 38 36" fill="none" xmlns="http://www.w3.org/2000/svg">
<path d="M0 5.84C0 5.12 0.03 4.41 0.1 3.72C0.17 3.03 0.33 2.41 0.59 1.86C0.85 1.31 1.24 0.87 1.74 0.53C2.25 0.19 2.95 0.02 3.84 0.02C4.73 0.02 5.41 0.19 5.93 0.53C6.44 0.87 6.83 1.31 7.09 1.86C7.35 2.41 7.52 3.03 7.58 3.72C7.65 4.41 7.68 5.12 7.68 5.84V13.78H14.61V5.84C14.61 5.12 14.64 4.41 14.71 3.72C14.78 3.03 14.94 2.41 15.2 1.86C15.46 1.31 15.85 0.87 16.35 0.53C16.86 0.19 17.56 0.02 18.45 0.02C19.34 0.02 20.02 0.19 20.54 0.53C21.05 0.87 21.44 1.31 21.7 1.86C21.96 2.41 22.13 3.03 22.19 3.72C22.26 4.41 22.29 5.12 22.29 5.84V29.62C22.29 30.36 22.26 31.08 22.19 31.77C22.12 32.46 21.96 33.08 21.7 33.63C21.44 34.18 21.05 34.62 20.54 34.95C20.03 35.28 19.33 35.44 18.45 35.44C17.57 35.44 16.86 35.28 16.35 34.95C15.84 34.62 15.46 34.18 15.2 33.63C14.94 33.08 14.77 32.46 14.71 31.77C14.64 31.08 14.61 30.36 14.61 29.62V21.22H7.69V29.62C7.69 30.36 7.66 31.08 7.59 31.77C7.52 32.46 7.36 33.08 7.1 33.63C6.84 34.18 6.45 34.62 5.94 34.95C5.43 35.28 4.73 35.44 3.85 35.44C2.97 35.44 2.26 35.28 1.75 34.95C1.24 34.62 0.86 34.18 0.6 33.63C0.34 33.08 0.17 32.46 0.11 31.77C0.04 31.08 0.01 30.36 0.01 29.62V5.84H0Z" fill="#21409A"/>
<path d="M29.7 15.81C29.7 15.1 29.74 14.41 29.81 13.74C29.89 13.07 30.06 12.46 30.33 11.93C30.6 11.4 30.99 10.97 31.49 10.64C32 10.31 32.68 10.15 33.54 10.15C34.4 10.15 35.08 10.31 35.59 10.64C36.1 10.97 36.48 11.4 36.75 11.93C37.02 12.46 37.19 13.06 37.27 13.74C37.35 14.41 37.38 15.11 37.38 15.81V29.77C37.38 30.48 37.34 31.17 37.27 31.86C37.19 32.54 37.02 33.15 36.75 33.68C36.48 34.21 36.09 34.64 35.59 34.96C35.08 35.28 34.4 35.44 33.54 35.44C32.68 35.44 32 35.28 31.49 34.96C30.98 34.64 30.6 34.21 30.33 33.68C30.06 33.15 29.89 32.54 29.81 31.86C29.73 31.18 29.7 30.48 29.7 29.77V15.81Z" fill="#21409A"/>
<path d="M37.45 2.52C37.29 2.18 37.09 1.86 36.86 1.57C36.07 0.61 34.88 0 33.54 0C32.2 0 31.01 0.61 30.22 1.57C29.89 1.97 29.63 2.44 29.46 2.95C29.32 3.38 29.24 3.83 29.24 4.3C29.24 6.67 31.17 8.6 33.54 8.6C35.91 8.6 37.84 6.67 37.84 4.3C37.84 3.66 37.7 3.06 37.45 2.52ZM33.54 8.06C31.66 8.06 30.14 6.69 30.14 5C30.14 4.81 30.16 4.62 30.2 4.44H36.88C36.92 4.62 36.94 4.81 36.94 5C36.94 6.69 35.42 8.06 33.54 8.06Z" fill="#21409A"/>
</svg>
