<?xml version="1.0" encoding="UTF-8"?><svg id="Layer_2" xmlns="http://www.w3.org/2000/svg" viewBox="0 0 122.22 35.44"><defs><style>.cls-1{fill:#21409a;}</style></defs><g id="Layer_1-2"><g><path class="cls-1" d="M0,5.84c0-.72,.03-1.43,.1-2.12,.07-.69,.23-1.31,.49-1.86,.26-.55,.65-.99,1.15-1.33C2.25,.19,2.95,.02,3.84,.02s1.57,.17,2.09,.51c.51,.34,.9,.78,1.16,1.33,.26,.55,.43,1.17,.49,1.86,.07,.69,.1,1.4,.1,2.12v7.94h6.93V5.84c0-.72,.03-1.43,.1-2.12,.07-.69,.23-1.31,.49-1.86,.26-.55,.65-.99,1.15-1.33,.51-.34,1.21-.51,2.1-.51s1.57,.17,2.09,.51c.51,.34,.9,.78,1.16,1.33,.26,.55,.43,1.17,.49,1.86,.07,.69,.1,1.4,.1,2.12V29.62c0,.74-.03,1.46-.1,2.15-.07,.69-.23,1.31-.49,1.86-.26,.55-.65,.99-1.16,1.32-.51,.33-1.21,.49-2.09,.49s-1.59-.16-2.1-.49-.89-.77-1.15-1.32c-.26-.55-.43-1.17-.49-1.86-.07-.69-.1-1.41-.1-2.15v-8.4H7.69v8.4c0,.74-.03,1.46-.1,2.15-.07,.69-.23,1.31-.49,1.86-.26,.55-.65,.99-1.16,1.32-.51,.33-1.21,.49-2.09,.49s-1.59-.16-2.1-.49c-.51-.33-.89-.77-1.15-1.32-.26-.55-.43-1.17-.49-1.86-.07-.69-.1-1.41-.1-2.15V5.84Z"/><path class="cls-1" d="M29.7,15.81c0-.71,.04-1.4,.11-2.07,.08-.67,.25-1.28,.52-1.81,.27-.53,.66-.96,1.16-1.29,.51-.33,1.19-.49,2.05-.49s1.54,.16,2.05,.49c.51,.33,.89,.76,1.16,1.29,.27,.53,.44,1.13,.52,1.81,.08,.67,.11,1.37,.11,2.07v13.96c0,.71-.04,1.4-.11,2.09-.08,.68-.25,1.29-.52,1.82-.27,.53-.66,.96-1.16,1.28-.51,.32-1.19,.48-2.05,.48s-1.54-.16-2.05-.48c-.51-.32-.89-.75-1.16-1.28-.27-.53-.44-1.14-.52-1.82-.08-.68-.11-1.38-.11-2.09V15.81Z"/><path class="cls-1" d="M65.82,29.72c0,.71-.04,1.4-.11,2.09s-.24,1.29-.51,1.83c-.26,.54-.65,.97-1.15,1.3s-1.2,.49-2.07,.49-1.57-.16-2.09-.49c-.51-.33-.91-.76-1.19-1.3-.28-.54-.46-1.15-.54-1.83-.08-.68-.13-1.38-.13-2.09v-9.97c0-.44-.02-.87-.05-1.3-.03-.43-.13-.81-.28-1.15-.15-.34-.38-.61-.67-.82-.3-.21-.7-.32-1.23-.32-.67,0-1.22,.22-1.64,.67-.42,.45-.75,1.06-1,1.85-.24,.78-.41,1.71-.51,2.78-.09,1.07-.14,2.22-.14,3.45v4.81c0,.71-.04,1.4-.11,2.09-.08,.68-.25,1.29-.52,1.83-.27,.54-.67,.97-1.19,1.3-.52,.33-1.23,.49-2.12,.49s-1.57-.16-2.07-.49-.89-.76-1.15-1.3c-.26-.54-.43-1.15-.51-1.83-.08-.68-.11-1.38-.11-2.09V5.74c0-.71,.04-1.4,.11-2.09,.08-.68,.24-1.29,.51-1.83,.26-.54,.65-.97,1.15-1.3s1.2-.49,2.07-.49,1.6,.16,2.12,.49c.52,.33,.92,.76,1.19,1.3,.27,.54,.44,1.15,.52,1.83,.08,.68,.11,1.38,.11,2.09V14.39c.15-.49,.37-.99,.66-1.49,.29-.51,.66-.96,1.11-1.37,.46-.4,.99-.74,1.61-1,.62-.26,1.33-.39,2.14-.39,.93,0,1.86,.16,2.8,.47,.94,.31,1.77,.82,2.5,1.53,.73,.71,1.33,1.64,1.8,2.8,.46,1.16,.7,2.58,.7,4.26v10.52Z"/><path class="cls-1" d="M71.89,15.81c0-.71,.04-1.4,.11-2.07,.08-.67,.25-1.28,.52-1.81,.27-.53,.66-.96,1.16-1.29,.51-.33,1.19-.49,2.05-.49s1.54,.16,2.05,.49c.51,.33,.89,.76,1.16,1.29,.27,.53,.44,1.13,.52,1.81,.08,.67,.11,1.37,.11,2.07v13.96c0,.71-.04,1.4-.11,2.09-.08,.68-.25,1.29-.52,1.82-.27,.53-.66,.96-1.16,1.28-.51,.32-1.19,.48-2.05,.48s-1.54-.16-2.05-.48c-.51-.32-.89-.75-1.16-1.28-.27-.53-.44-1.14-.52-1.82-.08-.68-.11-1.38-.11-2.09V15.81Z"/><path class="cls-1" d="M108.01,29.72c0,.71-.04,1.4-.11,2.09s-.24,1.29-.51,1.83c-.26,.54-.65,.97-1.15,1.3s-1.2,.49-2.07,.49-1.57-.16-2.09-.49c-.51-.33-.91-.76-1.19-1.3-.28-.54-.46-1.15-.54-1.83-.08-.68-.13-1.38-.13-2.09v-9.97c0-.44-.02-.87-.05-1.3-.03-.43-.13-.81-.28-1.15-.15-.34-.38-.61-.67-.82-.3-.21-.7-.32-1.23-.32-.67,0-1.22,.22-1.64,.67-.42,.45-.75,1.06-1,1.85-.24,.78-.41,1.71-.51,2.78-.09,1.07-.14,2.22-.14,3.45v4.81c0,.71-.04,1.4-.11,2.09-.08,.68-.25,1.29-.52,1.83-.27,.54-.67,.97-1.19,1.3-.52,.33-1.23,.49-2.12,.49s-1.57-.16-2.07-.49-.89-.76-1.15-1.3c-.26-.54-.43-1.15-.51-1.83-.08-.68-.11-1.38-.11-2.09V5.74c0-.71,.04-1.4,.11-2.09,.08-.68,.24-1.29,.51-1.83,.26-.54,.65-.97,1.15-1.3s1.2-.49,2.07-.49,1.6,.16,2.12,.49c.52,.33,.92,.76,1.19,1.3,.27,.54,.44,1.15,.52,1.83,.08,.68,.11,1.38,.11,2.09V14.39c.15-.49,.37-.99,.66-1.49,.29-.51,.66-.96,1.11-1.37,.46-.4,.99-.74,1.61-1,.62-.26,1.33-.39,2.14-.39,.93,0,1.86,.16,2.8,.47,.94,.31,1.77,.82,2.5,1.53,.73,.71,1.33,1.64,1.8,2.8,.46,1.16,.7,2.58,.7,4.26v10.52Z"/><path class="cls-1" d="M114.08,15.81c0-.71,.04-1.4,.11-2.07,.08-.67,.25-1.28,.52-1.81,.27-.53,.66-.96,1.16-1.29,.51-.33,1.19-.49,2.05-.49s1.54,.16,2.05,.49c.51,.33,.89,.76,1.16,1.29,.27,.53,.44,1.13,.52,1.81,.08,.67,.11,1.37,.11,2.07v13.96c0,.71-.04,1.4-.11,2.09-.08,.68-.25,1.29-.52,1.82-.27,.53-.66,.96-1.16,1.28-.51,.32-1.19,.48-2.05,.48s-1.54-.16-2.05-.48c-.51-.32-.89-.75-1.16-1.28-.27-.53-.44-1.14-.52-1.82-.08-.68-.11-1.38-.11-2.09V15.81Z"/><path class="cls-1" d="M79.64,2.52c-.16-.34-.36-.66-.59-.95-.79-.96-1.98-1.57-3.32-1.57s-2.53,.61-3.32,1.57c-.33,.4-.59,.87-.76,1.38-.14,.43-.22,.88-.22,1.35,0,2.37,1.93,4.3,4.3,4.3s4.3-1.93,4.3-4.3c0-.64-.14-1.24-.39-1.78Zm-3.91,5.54c-1.88,0-3.4-1.37-3.4-3.06,0-.19,.02-.38,.06-.56h6.68c.04,.18,.06,.37,.06,.56,0,1.69-1.52,3.06-3.4,3.06Z"/><path class="cls-1" d="M37.45,2.52c-.16-.34-.36-.66-.59-.95-.79-.96-1.98-1.57-3.32-1.57s-2.53,.61-3.32,1.57c-.33,.4-.59,.87-.76,1.38-.14,.43-.22,.88-.22,1.35,0,2.37,1.93,4.3,4.3,4.3s4.3-1.93,4.3-4.3c0-.64-.14-1.24-.39-1.78Zm-3.91,5.54c-1.88,0-3.4-1.37-3.4-3.06,0-.19,.02-.38,.06-.56h6.68c.04,.18,.06,.37,.06,.56,0,1.69-1.52,3.06-3.4,3.06Z"/><path class="cls-1" d="M121.84,2.52c-.16-.34-.36-.66-.59-.95-.79-.96-1.98-1.57-3.32-1.57s-2.53,.61-3.32,1.57c-.33,.4-.59,.87-.76,1.38-.14,.43-.22,.88-.22,1.35,0,2.37,1.93,4.3,4.3,4.3s4.3-1.93,4.3-4.3c0-.64-.14-1.24-.39-1.78Zm-3.91,5.54c-1.88,0-3.4-1.37-3.4-3.06,0-.19,.02-.38,.06-.56h6.68c.04,.18,.06,.37,.06,.56,0,1.69-1.52,3.06-3.4,3.06Z"/></g></g></svg>